Coordinates
version=1
nRows=11
nColumns=40
inDegrees=yes

Units are S.I. units (second, meters, Newtons, ...)
Angles are in degrees.

endheader
time	pelvis_tilt	pelvis_list	pelvis_rotation	pelvis_tx	pelvis_ty	pelvis_tz	hip_flexion_r	hip_adduction_r	hip_rotation_r	knee_angle_r	knee_angle_r_beta	ankle_angle_r	subtalar_angle_r	mtp_angle_r	hip_flexion_l	hip_adduction_l	hip_rotation_l	knee_angle_l	knee_angle_l_beta	ankle_angle_l	subtalar_angle_l	mtp_angle_l	lumbar_extension	lumbar_bending	lumbar_rotation	arm_flex_r	arm_add_r	arm_rot_r	elbow_flex_r	pro_sup_r	wrist_flex_r	wrist_dev_r	arm_flex_l	arm_add_l	arm_rot_l	elbow_flex_l	pro_sup_l	wrist_flex_l	wrist_dev_l
      1.76000000	      2.90080458	      1.11704240	     -1.74893215	     -0.19228085	      0.90386084	     -1.46852759	     19.06109633	     -3.37617270	     -5.36004488	    -50.83508937	     -0.88723969	      0.78760470	    -11.51497134	      9.33988107	      0.11815828	     -4.79883860	     11.03083913	    -14.43599071	     -0.25195557	      8.63139328	     -4.96661750	     -3.76739419	    -10.89718955	      0.49314730	     -1.64149179	      6.44495112	     -9.07006253	     19.70521421	     14.12827425	     89.95437384	      0.00000000	      0.00000000	     11.76608279	     11.40545374	    -17.30565759	     21.07212850	     89.95437384	      0.00000000	      0.00000000
      1.77000000	      3.10065564	      0.93278472	     -1.60057505	     -0.18547193	      0.90397521	     -1.46929531	     19.43879714	     -3.08946640	     -5.81809435	    -49.16073035	     -0.85801661	      1.51267270	    -10.98963675	      8.84786219	     -0.66075865	     -4.67343232	     10.96663857	    -14.29500990	     -0.24949499	      8.92454978	     -5.22271188	     -3.71956652	    -11.16152266	      0.78790298	     -1.89054940	      6.32206359	     -9.19355812	     19.91393033	     14.12553351	     89.95437384	      0.00000000	      0.00000000	     12.33227348	     11.55697462	    -16.76218243	     21.68224692	     89.95437384	      0.00000000	      0.00000000
      1.78000000	      2.84147206	      1.05655720	     -1.53774309	     -0.17915072	      0.90315156	     -1.47017559	     20.50683719	     -3.15176424	     -6.16427999	    -47.71549317	     -0.83279246	      1.95877012	    -10.74992877	      8.67323962	     -0.79612097	     -4.88672732	     10.98763335	    -14.33691611	     -0.25022639	      9.08357410	     -5.20199990	     -3.70586787	    -10.92918673	      0.74976806	     -1.96012974	      6.12619004	     -9.30805953	     19.87895709	     14.14492719	     89.95437384	      0.00000000	      0.00000000	     12.95372258	     11.69572597	    -16.60725885	     22.26521191	     89.95437384	      0.00000000	      0.00000000
      1.79000000	      3.54660402	      0.50175496	     -1.20973074	     -0.17147361	      0.90401750	     -1.47071364	     19.92657166	     -2.44749266	     -6.82000965	    -45.57235222	     -0.79538759	      2.81348157	    -10.23228077	      8.07961099	     -2.33372308	     -4.31062068	     10.73464638	    -14.01099308	     -0.24453796	      9.50979565	     -5.69290962	     -3.78742215	    -11.66631419	      1.43517200	     -2.37811052	      6.06783547	     -9.38947235	     19.96845210	     14.05024009	     89.95437384	      0.00000000	      0.00000000	     13.38362576	     11.82973381	    -15.95311473	     22.97509251	     89.95437384	      0.00000000	      0.00000000
      1.80000000	      3.55188913	      0.37190718	     -1.09814314	     -0.16474974	      0.90358973	     -1.47121593	     20.44176843	     -2.24730030	     -7.40879606	    -43.79481264	     -0.76436368	      3.27614786	     -9.94769298	      7.76017326	     -2.84319855	     -4.19497681	     10.69926402	    -14.01952615	     -0.24468689	      9.92251606	     -5.84822368	     -3.79678066	    -11.71711354	      1.64352968	     -2.53941623	      5.92758341	     -9.46972103	     20.07993532	     14.03061070	     89.95437384	      0.00000000	      0.00000000	     13.85929645	     12.00090524	    -15.73187965	     23.69387859	     89.95437384	      0.00000000	      0.00000000
      1.81000000	      3.28945616	      0.58029384	     -1.15848633	     -0.15817126	      0.90256242	     -1.47177140	     21.43189742	     -2.44706220	     -7.95792169	    -42.26857684	     -0.73772584	      3.47887769	     -9.75516110	      7.66255559	     -3.03428481	     -4.48582376	     10.85168587	    -14.00910207	     -0.24450496	     10.10848662	     -5.84680477	     -3.79763919	    -11.45978680	      1.47709840	     -2.54265077	      5.76286185	     -9.55363699	     19.99254675	     14.04750828	     89.95437384	      0.00000000	      0.00000000	     14.38227228	     12.12146954	    -15.60842239	     24.24790561	     89.95437384	      0.00000000	      0.00000000
      1.82000000	      3.68439002	      0.19129182	     -0.89976150	     -0.15104148	      0.90268906	     -1.47215141	     21.20070988	     -1.98433219	     -8.79009113	    -40.08125184	     -0.69954981	      3.39080368	     -9.24534524	      7.40182628	     -4.08947583	     -4.08915051	     10.56740765	    -13.81712064	     -0.24115425	     10.51833584	     -6.02047280	     -3.88204511	    -11.92380453	      1.97126727	     -2.87723618	      5.71082607	     -9.57418444	     19.75667658	     14.04461578	     89.95437384	      0.00000000	      0.00000000	     14.75184736	     12.32043243	    -15.39960185	     25.08438196	     89.95437384	      0.00000000	      0.00000000
      1.83000000	      3.45242306	      0.35249334	     -0.90902654	     -0.14435486	      0.90161646	     -1.47257800	     21.97768888	     -2.07196349	     -9.32017624	    -38.30954278	     -0.66862766	      3.38266947	     -8.87278283	      7.29476203	     -4.36053400	     -4.32006557	     10.59716541	    -13.72814933	     -0.23960141	     10.77590247	     -6.07020704	     -3.91425089	    -11.69750629	      1.84599711	     -2.96904829	      5.54470793	     -9.61404038	     19.65901557	     14.06665125	     89.95437384	      0.00000000	      0.00000000	     15.16781280	     12.45950602	    -15.28005612	     25.69248359	     89.95437384	      0.00000000	      0.00000000
      1.84000000	      3.57317312	      0.17389479	     -0.79579007	     -0.13738064	      0.90117187	     -1.47290111	     22.14788834	     -1.89368795	    -10.29600191	    -36.28908611	     -0.63336404	      2.98843949	     -7.95419905	      7.07769670	     -5.04981652	     -4.16219802	     10.40359146	    -13.65739426	     -0.23836650	     11.13423961	     -6.13743986	     -3.98183991	    -11.87506054	      2.09659180	     -3.10262368	      5.45586691	     -9.64399921	     19.37079219	     14.01032936	     89.95437384	      0.00000000	      0.00000000	     15.52008904	     12.59963131	    -15.20725109	     26.49699756	     89.95437384	      0.00000000	      0.00000000
      1.85000000	      3.31071795	      0.46107055	     -0.94357000	     -0.13062806	      0.89984896	     -1.47304814	     23.00457630	     -2.14780041	    -11.00573414	    -34.73959228	     -0.60632027	      2.97480955	     -7.63891095	      7.01105446	     -5.26600897	     -4.52089699	     10.54258713	    -13.65744083	     -0.23836731	     11.33245434	     -6.12231835	     -3.99807048	    -11.60659970	      1.79722215	     -2.99697967	      5.26471752	     -9.66289702	     19.29041510	     14.01847679	     89.95437384	      0.00000000	      0.00000000	     15.92676421	     12.68536769	    -15.11878740	     27.05639609	     89.95437384	      0.00000000	      0.00000000
      1.86000000	      3.64388851	      0.16767338	     -0.64623826	     -0.12352325	      0.89971008	     -1.47335059	     22.65644242	     -1.96565072	    -12.35727742	    -32.41533466	     -0.56575432	      2.17981572	     -5.54248122	      6.46406934	     -6.21727359	     -4.18846205	     10.20933274	    -13.56659007	     -0.23678167	     11.74388733	     -6.21394498	     -4.12839824	    -12.03781701	      2.17625100	     -3.37636722	      5.26597542	     -9.56920943	     18.48752200	     13.98297669	     89.95437384	      0.00000000	      0.00000000	     16.17636619	     12.86610021	    -14.91031410	     27.91166544	     89.95437384	      0.00000000	      0.00000000
